<svg width="616" height="343" viewBox="0 0 616 343" fill="none" xmlns="http://www.w3.org/2000/svg">
<path d="M71.3202 307.571C71.5472 276.159 76.4004 250.041 88.5627 218.218C96.8592 196.512 116.295 166.699 132.782 148.559C172.275 105.105 228.374 77.5311 283.732 72.3117C346.912 66.3556 402.619 83.2702 453.819 121.561C449.022 117.975 458.542 125.579 458.244 125.329C461.105 127.724 463.866 130.233 466.627 132.742C472.146 137.757 477.353 143.109 482.443 148.557C493.821 160.738 498.862 167.695 508.423 182.955C525.42 210.08 533.946 233.287 540.403 266.047C542.92 278.807 543.786 291.002 543.906 307.571C544.237 353.546 615.558 353.58 615.228 307.571C614.22 168.081 518.61 44.1609 383.193 9.32047C247.469 -25.6008 101.669 40.2042 35.9206 163.263C12.2512 207.566 0.362927 257.443 0.00117499 307.571C-0.333618 353.58 70.9879 353.546 71.3202 307.571Z" fill="#C45FA0"/>
</svg>
