<svg width="616" height="343" viewBox="0 0 616 343" fill="none" xmlns="http://www.w3.org/2000/svg">
<path d="M543.905 34.493C543.677 65.9071 538.824 92.0266 526.662 123.848C518.367 145.556 498.932 175.369 482.444 193.507C442.95 236.961 386.848 264.536 331.491 269.754C268.311 275.711 212.608 258.796 161.407 220.506C166.203 224.094 156.682 216.489 156.98 216.739C154.12 214.343 151.358 211.836 148.598 209.326C143.079 204.308 137.874 198.959 132.784 193.512C121.406 181.329 116.365 174.373 106.803 159.113C89.8066 131.989 81.2838 108.779 74.8243 76.0193C72.307 63.2583 71.4418 51.0646 71.3221 34.4943C70.9892 -11.4802 -0.332373 -11.5122 0.00116622 34.4943C1.00868 173.983 96.6134 297.906 232.032 332.745C367.756 367.665 513.559 301.863 579.308 178.803C602.978 134.5 614.865 84.6198 615.228 34.4918C615.558 -11.5134 544.237 -11.4815 543.905 34.493Z" fill="#4A5699"/>
</svg>
