<svg width="34" height="39" viewBox="0 0 34 39" fill="none" xmlns="http://www.w3.org/2000/svg">
<path d="M12.25 0C11.5596 0 11 0.559644 11 1.25C11 1.94036 11.5596 2.5 12.25 2.5H21.75C22.4404 2.5 23 1.94036 23 1.25C23 0.559644 22.4404 0 21.75 0H12.25ZM0 22C0 12.6112 7.61116 5 17 5C26.3888 5 34 12.6112 34 22C34 31.3888 26.3888 39 17 39C7.61116 39 0 31.3888 0 22ZM15.75 21.75C15.75 22.4404 16.3096 23 17 23C17.6904 23 18.25 22.4404 18.25 21.75V12.25C18.25 11.5596 17.6904 11 17 11C16.3096 11 15.75 11.5596 15.75 12.25V21.75ZM29.3661 5.36612C29.8543 4.87797 30.6457 4.87797 31.1339 5.36612L33.6339 7.86612C34.122 8.35428 34.122 9.14573 33.6339 9.63389C33.1457 10.122 32.3543 10.122 31.8661 9.63389L29.3661 7.13389C28.878 6.64573 28.878 5.85428 29.3661 5.36612Z" fill="#242424"/>
</svg>
